<svg xmlns="http://www.w3.org/2000/svg" width="1024" height="613" viewBox="0 0 1024 613" version="1.1"><path d="M 918.665 382.462 C 892.241 385.818, 872.744 391.423, 852.325 401.535 C 833.637 410.789, 825.924 418.252, 829.037 424.068 C 830.987 427.712, 833.742 427.858, 855.515 425.474 C 919.499 418.467, 954.425 419.990, 965.318 430.263 C 976.478 440.789, 970.053 474.675, 944.365 540.769 C 936.098 562.040, 935.556 565.559, 940.204 567.776 C 942.458 568.850, 943.503 568.817, 946.474 567.575 C 959.479 562.142, 981.362 534.646, 995.067 506.520 C 1013.830 468.015, 1023.967 415.281, 1016.048 397.375 C 1014.578 394.053, 1013.181 392.758, 1008.862 390.716 C 1002.791 387.846, 994.198 385.447, 982.500 383.357 C 970.850 381.276, 932.263 380.735, 918.665 382.462 M 7.923 403.923 C 2.002 409.845, 4.222 413.776, 22.390 429.533 C 98.669 495.691, 191.332 546.940, 288 576.435 C 389.685 607.460, 496.400 616.848, 600.500 603.926 C 696.583 591.999, 792.184 561.534, 868 518.681 C 895.986 502.862, 923.587 484.022, 927.099 478.340 C 930.032 473.594, 930.180 467.059, 927.438 463.386 C 923.544 458.169, 920.315 456.498, 914.177 456.524 C 909.403 456.544, 905.079 457.923, 887 465.185 C 758.024 516.999, 611.430 541.895, 476 534.986 C 331.718 527.625, 196.099 492.234, 70.270 429.107 C 58.297 423.100, 41.525 414.319, 33 409.593 C 15.401 399.838, 12.634 399.212, 7.923 403.923" stroke="none" fill="#fc9c04" fill-rule="evenodd"/><path d="M 852.009 4.019 C 810.850 8.323, 779.139 28.337, 764.442 59.285 C 759.895 68.860, 758.039 78.110, 758.017 91.303 C 757.996 104.550, 759.935 113.750, 765.085 124.844 C 775.930 148.206, 793.476 163.009, 822.663 173.419 C 826.423 174.760, 841.425 179.546, 856 184.055 C 894.603 195.995, 906.937 201.814, 913.748 211.299 C 918.497 217.912, 920.331 224.725, 919.805 233.805 C 918.706 252.800, 906.266 265.191, 882.216 271.249 C 874.696 273.143, 870.755 273.446, 853.500 273.456 C 824.192 273.473, 805.588 269.883, 778.617 259.008 C 756.937 250.266, 753.995 251.987, 754.006 273.399 C 754.012 287.133, 755.148 291.476, 759.923 296.031 C 775.576 310.965, 834.103 323.574, 871.451 320.059 C 926.237 314.904, 963.134 289.185, 974.113 248.500 C 977.189 237.101, 977.228 215.818, 974.192 204.713 C 967.776 181.244, 950.804 163.030, 925 151.922 C 920.325 149.910, 901.425 143.442, 883 137.549 C 844.938 125.376, 833.938 120.614, 825.208 112.532 C 817.259 105.172, 814.636 99.249, 814.568 88.500 C 814.497 77.395, 816.855 70.997, 823.403 64.528 C 829.219 58.783, 836.835 54.773, 846.686 52.269 C 856.726 49.718, 894.010 49.754, 906 52.327 C 918.308 54.968, 926.656 57.537, 937.241 61.943 C 950.368 67.406, 952.987 67.775, 956.598 64.672 C 959.480 62.195, 959.502 62.092, 959.837 49.350 C 960.247 33.701, 959.417 30.560, 953.401 25.015 C 938.297 11.093, 886.642 0.396, 852.009 4.019 M 150.107 5.074 C 118.669 8.618, 75.704 23.442, 69.211 32.985 C 67.771 35.102, 67.500 38.055, 67.500 51.643 C 67.500 66.382, 67.674 67.980, 69.500 70.002 C 72.279 73.079, 77.485 72.304, 92.122 66.635 C 116.985 57.005, 137.502 52.285, 158.500 51.366 C 195.168 49.760, 217.091 58.134, 226.474 77.328 C 232.662 89.988, 234.952 104.122, 234.983 129.858 L 235 144.217 232.311 143.542 C 225.055 141.721, 204.926 137.910, 194.351 136.355 C 177.609 133.893, 143.902 133.881, 131.500 136.333 C 117.544 139.092, 109.357 141.749, 98.500 147.044 C 63.780 163.977, 45 196.647, 47.365 236 C 48.904 261.612, 56.041 278.271, 72.492 294.655 C 80.493 302.623, 83.035 304.468, 92.093 308.878 C 108.628 316.929, 116.564 318.504, 140.500 318.481 C 159.150 318.463, 161.234 318.272, 171.364 315.649 C 195.889 309.301, 215.202 298.009, 232.608 279.844 L 238.716 273.469 242.448 280.718 C 250.438 296.240, 259.775 308.716, 265.397 311.384 C 272.502 314.756, 275.522 313.772, 291.500 302.885 C 303.400 294.776, 304.097 294.218, 306.296 291.027 C 309.005 287.097, 308.351 282.668, 303.668 273.230 C 291.458 248.622, 291.923 252.512, 290.978 167 C 290.347 109.949, 289.861 92.795, 288.695 86.500 C 282.381 52.409, 269.194 31.936, 245 18.667 C 236.578 14.048, 220.009 8.602, 208 6.506 C 196.659 4.527, 162.467 3.681, 150.107 5.074 M 326.350 12.959 C 322.702 14.490, 321.607 19.911, 323.469 27.216 C 328.116 45.448, 405.634 298.248, 407.868 302.459 C 412.451 311.093, 413.874 311.500, 439.500 311.500 C 464.980 311.500, 466.728 311.021, 470.759 302.934 C 472.105 300.234, 483.542 254.361, 499.053 189.451 C 513.372 129.528, 525.180 80.181, 525.294 79.791 C 525.407 79.402, 537.338 128.452, 551.806 188.791 C 566.651 250.701, 579.068 300.438, 580.306 302.948 C 584.465 311.381, 584.897 311.500, 611.323 311.500 C 638.168 311.500, 639.356 311.193, 643.373 303.227 C 646.737 296.554, 730.064 28.783, 730.702 22.593 C 731.128 18.457, 730.846 17.030, 729.201 15 L 727.175 12.500 705.338 12.500 C 679.252 12.500, 677.573 12.969, 673.623 21.352 C 672.289 24.184, 658.324 76.450, 642.589 137.500 C 626.854 198.550, 613.645 249.301, 613.237 250.281 C 612.768 251.402, 602.716 210.524, 586.064 139.781 C 571.527 78.026, 559.004 25.601, 558.233 23.280 C 556.388 17.720, 551.296 13.317, 545.751 12.485 C 543.367 12.128, 533.110 11.985, 522.958 12.168 C 501.468 12.555, 499.064 13.324, 495.316 21.017 C 494.073 23.568, 481.795 73.686, 466.828 137.301 C 449.676 210.205, 440.255 248.476, 439.749 247.301 C 439.322 246.311, 426.375 195.820, 410.978 135.099 C 393.618 66.638, 382.132 23.174, 380.742 20.688 C 376.267 12.682, 375.718 12.529, 350.679 12.278 C 338.481 12.156, 327.533 12.462, 326.350 12.959 M 154.500 176.039 C 138.614 178.516, 127.379 183.734, 119.111 192.476 C 110.686 201.385, 106.987 212.032, 107.015 227.299 C 107.042 242.393, 110.631 252.558, 119.095 261.507 C 128.384 271.329, 138.852 274.565, 158.648 273.732 C 184.559 272.643, 203.771 264.651, 218.531 248.821 C 230.584 235.895, 233.982 225.634, 234.729 199.904 L 235.241 182.307 223.870 180.129 C 217.617 178.932, 209.350 177.493, 205.500 176.933 C 195.709 175.509, 161.724 174.913, 154.500 176.039" stroke="none" fill="#242c3c" fill-rule="evenodd"/></svg>