<?xml version="1.0" encoding="UTF-8"?><svg id="Layer_2" xmlns="http://www.w3.org/2000/svg" viewBox="0 0 1328.44 297.11"><defs><style>.cls-1,.cls-2,.cls-3,.cls-4,.cls-5,.cls-6,.cls-7,.cls-8,.cls-9{stroke-width:0px;}.cls-2{fill:#2b5baf;}.cls-3{fill:#383838;}.cls-4{fill:#333;}.cls-5{fill:#7f7f7f;}.cls-6{fill:#fff;}.cls-7{fill:#e84b5e;}.cls-8{fill:#eaeaea;}.cls-9{fill:#0086ff;}.cls-10{fill:none;stroke:#eaeaea;stroke-miterlimit:10;stroke-width:4.84px;}</style></defs><g id="Layer_4"><path id="path10349" class="cls-2" d="M314.75,64.83c-1.72-5.52-5.86-10-11.03-12.76L198.55,1.72c-2.76-1.38-5.86-1.72-8.62-1.72-1.26,0-2.6,0-3.94.07-2.55.13-5.04.8-7.34,1.91l-102.51,49.4c-5.17,2.41-8.97,6.9-10.34,12.76l-25.86,113.45c-.99,5.59.22,11.18,3.33,15.88.3.46.64.89.98,1.31l71.35,88.26c.72.89,1.5,1.72,2.37,2.46,3.79,3.2,8.65,5.35,13.57,5.82.55.05,1.1.06,1.65.06h114.22c.54,0,1.09.04,1.63.07,5.9.37,11.42-2.37,15.05-7.31l72.24-89.36c.34-.42.68-.86.98-1.31,2.71-4.09,3.98-8.86,3.83-13.72-.04-1.22-.22-2.42-.5-3.61l-25.87-111.31h0Z"/><rect class="cls-4" x="211.18" y="137.76" width="2.99" height="115.13" rx="1.3" ry="1.3" transform="translate(-61.36 104.28) rotate(-24.19)"/><rect class="cls-4" x="108.44" y="194.06" width="115.13" height="2.99" rx="1.3" ry="1.3" transform="translate(-79.7 269.22) rotate(-66.36)"/><rect class="cls-8" x="143.43" y="85" width="115.13" height="2.99" rx="1.3" ry="1.3" transform="translate(74.78 265.24) rotate(-78.06)"/><rect class="cls-8" x="165.3" y="94.71" width="115.13" height="2.99" rx="1.3" ry="1.3" transform="translate(14.2 220.22) rotate(-54.07)"/><rect class="cls-8" x="181.32" y="112.44" width="115.13" height="2.99" rx="1.3" ry="1.3" transform="translate(-24.92 135.22) rotate(-30.11)"/><rect class="cls-8" x="188.76" y="135.25" width="115.13" height="2.99" rx="1.3" ry="1.3" transform="translate(-13.02 26.69) rotate(-6.04)"/><rect class="cls-8" x="242.38" y="102.91" width="2.99" height="115.13" rx="1.3" ry="1.3" transform="translate(16.34 343.37) rotate(-72.14)"/><rect class="cls-8" x="230.45" y="123.68" width="2.99" height="115.13" rx="1.3" ry="1.3" transform="translate(-57.85 232.92) rotate(-48.12)"/><rect class="cls-8" x="188.01" y="142.81" width="2.99" height="115.13" rx="1.3" ry="1.3" transform="translate(-1.46 1.39) rotate(-.42)"/><rect class="cls-8" x="88.82" y="179.93" width="115.13" height="2.99" rx="1.3" ry="1.3" transform="translate(-83.88 145.05) rotate(-42.12)"/><rect class="cls-8" x="76.86" y="159.37" width="115.13" height="2.99" rx="1.3" ry="1.3" transform="translate(-43.65 50.25) rotate(-18.27)"/><rect class="cls-8" x="130.3" y="79.57" width="2.99" height="115.13" rx="1.3" ry="1.3" transform="translate(-17.67 254.78) rotate(-84.34)"/><rect class="cls-8" x="137.59" y="56.72" width="2.99" height="115.13" rx="1.3" ry="1.3" transform="translate(-29.11 178.43) rotate(-60.29)"/><rect class="cls-8" x="153.47" y="38.89" width="2.99" height="115.13" rx="1.3" ry="1.3" transform="translate(-27.02 110.63) rotate(-36.36)"/><rect class="cls-8" x="175.4" y="28.99" width="2.99" height="115.13" rx="1.3" ry="1.3" transform="translate(-14.32 39.42) rotate(-12.22)"/><circle class="cls-10" cx="188.94" cy="142.8" r="102.14"/><circle class="cls-10" cx="188.9" cy="142.83" r="90.05"/><path class="cls-7" d="M72.82,123.23h4.42c3.01,0,5.46,2.45,5.46,5.46v8.3c0,.87-.71,1.58-1.58,1.58h-12.18c-.87,0-1.58-.71-1.58-1.58v-8.3c0-3.01,2.45-5.46,5.46-5.46Z"/><path class="cls-7" d="M87.35,77.61h4.42c3.01,0,5.46,2.45,5.46,5.46v8.3c0,.87-.71,1.58-1.58,1.58h-12.18c-.87,0-1.58-.71-1.58-1.58v-8.3c0-3.01,2.45-5.46,5.46-5.46Z"/><path class="cls-7" d="M119.25,42.49h4.42c3.01,0,5.46,2.45,5.46,5.46v8.3c0,.87-.71,1.58-1.58,1.58h-12.18c-.87,0-1.58-.71-1.58-1.58v-8.3c0-3.01,2.45-5.46,5.46-5.46Z"/><path class="cls-7" d="M162.85,23.51h4.42c3.01,0,5.46,2.45,5.46,5.46v8.3c0,.87-.71,1.58-1.58,1.58h-12.18c-.87,0-1.58-.71-1.58-1.58v-8.3c0-3.01,2.45-5.46,5.46-5.46Z"/><path class="cls-7" d="M210.49,23.11h4.42c3.01,0,5.46,2.45,5.46,5.46v8.3c0,.87-.71,1.58-1.58,1.58h-12.18c-.87,0-1.58-.71-1.58-1.58v-8.3c0-3.01,2.45-5.46,5.46-5.46Z"/><path class="cls-7" d="M254.09,42.89h4.42c3.01,0,5.46,2.45,5.46,5.46v8.3c0,.87-.71,1.58-1.58,1.58h-12.18c-.87,0-1.58-.71-1.58-1.58v-8.3c0-3.01,2.45-5.46,5.46-5.46Z"/><path class="cls-7" d="M285.99,77.61h4.42c3.01,0,5.46,2.45,5.46,5.46v8.3c0,.87-.71,1.58-1.58,1.58h-12.18c-.87,0-1.58-.71-1.58-1.58v-8.3c0-3.01,2.45-5.46,5.46-5.46Z"/><path class="cls-7" d="M300.52,123.23h4.42c3.01,0,5.46,2.45,5.46,5.46v8.3c0,.87-.71,1.58-1.58,1.58h-12.18c-.87,0-1.58-.71-1.58-1.58v-8.3c0-3.01,2.45-5.46,5.46-5.46Z"/><path class="cls-7" d="M295.68,170.87h4.42c3.01,0,5.46,2.45,5.46,5.46v8.3c0,.87-.71,1.58-1.58,1.58h-12.18c-.87,0-1.58-.71-1.58-1.58v-8.3c0-3.01,2.45-5.46,5.46-5.46Z"/><path class="cls-7" d="M271.86,212.05h4.42c3.01,0,5.46,2.45,5.46,5.46v8.3c0,.87-.71,1.58-1.58,1.58h-12.18c-.87,0-1.58-.71-1.58-1.58v-8.3c0-3.01,2.45-5.46,5.46-5.46Z"/><path class="cls-7" d="M187.21,249.6h4.42c3.01,0,5.46,2.45,5.46,5.46v8.3c0,.87-.71,1.58-1.58,1.58h-12.18c-.87,0-1.58-.71-1.58-1.58v-8.3c0-3.01,2.45-5.46,5.46-5.46Z"/><path class="cls-7" d="M101.48,211.65h4.42c3.01,0,5.46,2.45,5.46,5.46v8.3c0,.87-.71,1.58-1.58,1.58h-12.18c-.87,0-1.58-.71-1.58-1.58v-8.3c0-3.01,2.45-5.46,5.46-5.46Z"/><path class="cls-7" d="M77.66,170.87h4.42c3.01,0,5.46,2.45,5.46,5.46v8.3c0,.87-.71,1.58-1.58,1.58h-12.18c-.87,0-1.58-.71-1.58-1.58v-8.3c0-3.01,2.45-5.46,5.46-5.46Z"/><rect class="cls-5" x="117.62" y="261.91" width="142.11" height="7.27"/><polygon class="cls-5" points="190.85 159.33 187.53 159.33 142.39 261.88 130.54 261.88 184.63 138.17 190.85 138.17 190.85 159.33"/><polygon class="cls-5" points="186.7 159.33 190.02 159.33 235.17 261.88 247.02 261.88 192.92 138.17 186.7 138.17 186.7 159.33"/><path class="cls-3" d="M376.76,266.5l-.13-14.86c.08-.11.28-.4.28-.65,0-.1-.03-.18-.08-.24l-.02-.02c-.12-.14-.24-.29-.24-.38,0,0,0-.03.03-.07.02-.03.05-.06.08-.09.15-.15.38-.38.4-.99h.11s.08-.05.08-.11v-.49c0-.06-.04-.11-.08-.11h-.11v-.98c0-.06-.04-.11-.08-.11h-.11v-1.48h.11s.08-.05.08-.11v-.53h1.03s.08-.05.08-.11v-.75l.28-.85s0-.06,0-.08c0-.01-.01-.02-.02-.03v-.37c0-.06-.03-.11-.08-.11h-.14s-.06-.03-.11-.03c-.17,0-.11-.24-.07-.31.05-.07.28-.32.28-.44s.15-.06.2,0c.05.06.11-.05,0-.19-.11-.14-.24-.08-.31,0-.07.09-.14.22-.14,0s-.11-.34-.2-.46c-.1-.12-.11-.28,0-.28s.29.15.29,0-.05-.15-.18-.24c-.12-.1-.12-.3-.24-.22-.12.08-.14.34-.29.34s-.17-.05-.11-.13c.05-.07.32-.64-.03-.74-.35-.1-.62.2-.62.62s.08.86.46,1.13c.39.27-.49-.15-.52.21-.03.36.05.39-.05.51,0,.01-.01.03-.02.04l-16.88-5.74c.05-.03.09-.08.05-.23-.09-.3.03-.63-.19-.63s-.34-.03-.27-.11c.06-.09.32-.37.32-.93s-.4-.73-.57-.38c-.18.35.23.77-.11.37,0,0-.1-.26-.36-.14,0,0,.04-.99-.46-1.07v-1.94c.06.17.14.44.22.77.06.26.21.44.35.44.07,0,.14-.04.19-.11.18-.23.2-.46.2-.98,0-.57-.11-1.01-.35-1.48-.14-.27-.14-.47-.13-.8,0-.27.01-.61-.05-1.11-.12-.94-.35-1.45-.43-1.6v-.51c.05-.03.08-.09.08-.17s-.03-.14-.08-.17v-.02s-.03-.08-.06-.08-.06.03-.06.08v.02c-.05.03-.08.1-.08.17s.03.14.08.17v7.32c-.5.08-.46,1.07-.46,1.07-.26-.11-.36.14-.36.14-.34.4.07-.02-.11-.37-.17-.35-.57-.17-.57.38s.26.84.32.93c.06.08-.05.11-.27.11s-.11.33-.19.63c-.04.15,0,.2.05.23l-16.88,5.74s-.01-.03-.02-.04c-.1-.12-.02-.15-.05-.51-.03-.36-.92.06-.52-.21.39-.27.46-.71.46-1.13s-.27-.72-.62-.62c-.35.1-.08.67-.03.74.06.07.03.13-.11.13s-.16-.25-.29-.34c-.13-.08-.12.12-.24.22-.12.1-.18.1-.18.24s.19,0,.29,0,.1.16,0,.28c-.09.12-.2.25-.2.46s-.08.08-.14,0c-.06-.08-.2-.14-.31,0-.11.14-.05.25,0,.19.05-.06.2-.13.2,0s.23.38.28.44c.05.06.11.31-.07.31-.05,0-.08.01-.11.03h-.14s-.08.05-.08.11v.37s-.01.02-.02.03c-.01.03-.01.06,0,.08l.29.85v.75c0,.06.03.11.08.11h1.03v.53c0,.06.04.11.08.11h.12v1.48h-.12s-.08.05-.08.11v.98h-.11s-.08.05-.08.11v.49c0,.06.04.11.08.11h.05c.03.61.25.84.4.99.03.03.06.06.08.09.03.03.03.06.03.07,0,.09-.12.24-.23.38l-.02.03c-.05.06-.08.14-.08.24,0,.26.2.55.28.65l-.08,9.36h-9.57v-68.04s.04-.19-.32-.19c-.31,0-.28.19-.28.19,0,17.92-15.83,23.01-22.13,23.01s-6.78-2.55-6.78-2.55h-.4v36.77h-7.75v-22.25l-14.14-5.94-3.24,2.94v.65l-2.77-.82v-15.55h-7.85v54.35h-8.61c.38-5.55.47-10.27.47-10.27,0-4.99-.75-10.85-1.4-15,.14-1.72.23-3.39.23-4.88,0,0-.26-3.54-1.17-8.58v-5.45c1.71-7.19,2.34-20.34,2.34-20.34,0-5.72-1.67-17.82-1.67-17.82h-.67v-2.16h-2.76v-1.12l-12.69-.81v76.43h-7.47v-4.61l.76-.56v-.22h.32v-.24l-1.1-.47v-.93h.13v-.22l-.32-.31v-5.68h.18v-.31h.26v-.19h-.44v-3.9h.3v-.36h.28v-.39h-.29s.21-.17.21-.9-1.44-.38-1.44-1.08v-.7s.24-.13.24-.36v-.15h-.52s-.01-.17-.13-.17c-.14,0-.1-.12-.1-.23s.56-.37.56-1.23-.69-.36-.69-.75.22-.22.22-.48-.21-.29-.33-.29-.33.02-.33.29.22.09.22.48-.69-.12-.69.75.56,1.12.56,1.23.03.23-.1.23c-.11,0-.13.13-.13.17h-.72v.14s-.92-.32-.92-1.12v-.74h.25v-.35h-.2v-.68h.42v-.4h.2v-.4s-.67-.13-.67-.82h-.13v-.7s.84-.11.84-.79v-.33h-2.62v-.68h-.36s-.02-.24-.2-.29c-.18-.05-.12-.46-.12-.61s.52-.27.52-.6-.05-.52-.19-.43c-.14.09-.2.27-.2.02s.05-.51-.07-.63c-.11-.11-.13-.27-.34-.17-.2.1-.12.27-.21.36-.09.1-.25-.14-.25.1s-.02.5.12.7c.14.21-.18-.01-.18.26s.31.52.16.75c-.15.23-.21.4-.21.52h-.31v.68h-2.62v.33c0,.68.84.79.84.79v.7h-.13c0,.69-.67.82-.67.82v.4h.2v.4h.43v.68h-.2v.35h.25v.74c0,.8-.92,1.12-.92,1.12v-.14h-.72s-.01-.17-.13-.17c-.14,0-.1-.12-.1-.23s.56-.37.56-1.23-.69-.36-.69-.75.22-.22.22-.48-.21-.29-.33-.29-.33.02-.33.29.22.09.22.48-.69-.12-.69.75.56,1.12.56,1.23.03.23-.1.23c-.11,0-.13.13-.13.17h-.53v.15c0,.23.24.36.24.36v.7c0,.7-1.44.35-1.44,1.08s.2.9.2.9h-.29v.39h.29v.36h.3v3.9h-2.1v-23.81s.23-.37,0-.6c-.23-.24.18-.56,0-.73-.18-.18-.07-.61-.07-.61h.88v-.63h.27v-.39h-.33s.29-.4.12-.59c-.17-.17-.24-.3-.2-.52.06-.22-.21-1.05.32-1.05s.37,0,.47.1c.1.1.05-.3-.23-.38-.28-.08-.7-.26-.95,0-.26.25-.18.52-.63.52s-1.22-.3-1.22-.5v-2.99s.38-.04.38-.47c0,0-.4-1.67-1.83-1.83h0c-.03-.06-.06-.14-.08-.3.03,0,.28.02.28-.36,0,0,.01-.29-.36-.32v-.37h.13s.06-.03.06-.06-.03-.06-.06-.06h-.13v-.15s-.02-.06-.06-.06-.06.03-.06.06v.15h-.13s-.06.03-.06.06.03.06.06.06h.13v.37c-.37.03-.36.32-.36.32,0,.38.24.37.27.36,0,.16-.04.24-.08.29h0c-1.44.16-1.83,1.83-1.83,1.83,0,.43.38.47.38.47v2.99c0,.2-.77.5-1.22.5s-.38-.27-.63-.52c-.26-.26-.67-.08-.95,0-.28.08-.33.47-.24.38.1-.1-.06-.1.47-.1s.27.82.32,1.05c.05.22-.01.34-.2.52-.17.18.13.59.13.59h-.33v.39h.27v.63h.89s.1.43-.08.61c-.17.17.24.5,0,.73-.23.23,0,.6,0,.6v23.76c-.52-.02-1.04-.26-1.51-.84-2.08-2.52-4.75-2.27-4.75-2.27v-4.35s.07-.25.07-.62v-1.05s.29-.1.29-.29c0,0,.28,0,.28-.18v-.2l-.86-.34v-1.8s.19-.1.19-.38l-.3-.5s-.09-.29-.03-.45c.06-.16.1-.24-.01-.35-.12-.12.01-.38.12-.38s.2-.16.2-.35-.36-.23-.36-.6-.08-.52-.29-.63c-.2-.1-.2-.29-.1-.38.09-.1,0-.27-.24-.27s-.29.1-.24.29c.04.19-.03.21-.12.3-.09.08-.31.2-.31-.13v-.96l-.13-.29v-.75s.06-1.19-.3-1.55c0,0-.93-6.28-8.25-8.79v-.25l-.15-.1v-2.8l.08-.08v-.56s.16-.22,0-.47c0,0-.13-.13-.13-.34s.07-.98-.09-1.03c-.15-.05.07.71-.11.8-.18.09-.33-.18-.45-.3-.12-.12-.3-.26-.3-.5v-.93l-.13-.19v-.38s-.01-.6-.89-1.04c0,0-.24-.04-.24-.37,0,0-.04-.17-.04-.44.27-.07.47-.31.47-.61s-.22-.56-.51-.61v-.91h.51v-.27h-.51v-.65h-.24v.65h-.51v.27h.51v.91c-.29.06-.51.31-.51.61s.2.54.47.61c0,.27-.04.44-.04.44,0,.33-.24.37-.24.37-.88.44-.89,1.04-.89,1.04v.38l-.13.19v.93c0,.24-.17.38-.29.5-.11.12-.27.39-.45.3-.18-.09.05-.85-.11-.8-.16.06-.09.82-.09,1.03s-.13.34-.13.34c-.16.24,0,.47,0,.47v.56l.07.08v2.8l-.14.1v.25c-7.32,2.51-8.26,8.79-8.26,8.79-.36.36-.29,1.55-.29,1.55v.75l-.13.29v.96c0,.32-.22.21-.31.13-.08-.09-.16-.11-.12-.3.04-.19,0-.29-.24-.29s-.33.17-.24.27c.1.1.09.29-.11.38-.2.1-.29.25-.29.63s-.36.41-.36.6.09.35.2.35.24.27.12.38c-.12.11-.07.19-.01.35.05.17-.04.45-.04.45l-.3.5c0,.29.2.38.2.38v1.8l-.87.34v.2c0,.18.28.18.28.18,0,.19.29.29.29.29v1.05c0,.37.07.62.07.62v4.35s-2.67-.25-4.75,2.27c-.48.58-1,.82-1.52.84v-23.76s.24-.37,0-.6c-.23-.24.18-.56,0-.73-.17-.18-.07-.61-.07-.61h.89v-.63h.26v-.39h-.33s.29-.4.12-.59c-.17-.17-.24-.3-.19-.52.05-.22-.21-1.05.32-1.05s.37,0,.47.1c.1.1.05-.3-.23-.38-.28-.08-.7-.26-.95,0-.25.25-.18.52-.63.52s-1.22-.3-1.22-.5v-2.99s.37-.04.37-.47c0,0-.39-1.67-1.83-1.83-.03-.04-.06-.13-.07-.29.03,0,.27.02.27-.36,0,0,.01-.29-.36-.32v-.37h.13s.06-.03.06-.06-.03-.06-.06-.06h-.13v-.15s-.03-.06-.06-.06-.06.03-.06.06v.15h-.13s-.06.03-.06.06.02.06.06.06h.13v.37c-.37.03-.36.32-.36.32,0,.38.24.37.28.36-.01.17-.05.25-.08.29-1.44.16-1.83,1.83-1.83,1.83,0,.43.37.47.37.47v2.99c0,.2-.77.5-1.21.5s-.38-.27-.63-.52c-.25-.26-.67-.08-.95,0-.28.08-.33.47-.23.38.1-.1-.06-.1.47-.1s.27.82.33,1.05c.04.22-.02.34-.2.52-.17.18.12.59.12.59h-.33v.39h.27v.63h.88s.11.43-.07.61c-.18.17.23.5,0,.73-.24.23,0,.6,0,.6v23.81h-2.1v-3.9h.3v-.36h.28v-.39h-.29s.21-.17.21-.9-1.44-.38-1.44-1.08v-.7s.24-.13.24-.36v-.15h-.52s-.01-.17-.13-.17c-.14,0-.1-.12-.1-.23s.56-.37.56-1.23-.69-.36-.69-.75.22-.22.22-.48-.21-.29-.33-.29-.33.02-.33.29.22.09.22.48-.69-.12-.69.75.56,1.12.56,1.23.03.23-.1.23c-.11,0-.13.13-.13.17h-.72v.14s-.92-.32-.92-1.12v-.74h.25v-.35h-.2v-.68h.42v-.4h.2v-.4s-.67-.13-.67-.82h-.13v-.7s.84-.11.84-.79v-.33h-2.62v-.68h-.32c0-.13-.05-.29-.2-.52-.15-.23.16-.48.16-.75s-.33-.05-.19-.26c.15-.2.13-.46.13-.7s-.16,0-.25-.1c-.09-.09,0-.26-.21-.36-.21-.1-.24.06-.35.17-.11.12-.07.38-.07.63s-.05.07-.19-.02c-.14-.09-.2.09-.2.43s.53.44.53.6.06.56-.13.61c-.17.04-.2.29-.2.29h-.36v.68h-2.62v.33c0,.68.84.79.84.79v.7h-.13c0,.69-.67.82-.67.82v.4h.2v.4h.42v.68h-.2v.35h.25v.74c0,.8-.92,1.12-.92,1.12v-.14h-.72s-.01-.17-.13-.17c-.14,0-.1-.12-.1-.23s.56-.37.56-1.23-.69-.36-.69-.75.22-.22.22-.48-.21-.29-.33-.29-.33.02-.33.29.22.09.22.48-.69-.12-.69.75.56,1.12.56,1.23.03.23-.1.23c-.11,0-.13.13-.13.17h-.53v.15c0,.23.25.36.25.36v.7c0,.7-1.44.35-1.44,1.08s.2.9.2.9h-.29v.39h.29v.36h.3v3.9h-.44v.19h.26v.31h.18v5.68l-.32.31v.22h.12v.93l-1.1.47v.24h.32v.22l.75.56v9.96h-7.12v-63.18h-.06l-.11-15.32c0-.07-.06-.13-.13-.13-.07,0-.13.06-.13.13l-.11,15.32h-.06l-9.68,9.32h-4.54v5.7h-2.27v1.55h-.28v13.39h.24v2.23h-.24v20.9h-9.76v-1.47h.44l.12-.58v-.71h-.37v-2.09l-.28-.39v-1.96l.17-.26v-.86l-.34-.46h-.12v-.69l-.1-.1v-2.21l-.37-.56v-1.52s.12-.42-.41-.75c0,0-.27-.15-.27-.62,0,0,.14-.17,0-.43-.14-.26-.2-.61-.2-1.23,0,0,0-.87-.06-.87s-.06.87-.06.87c0,.62-.06.97-.2,1.23-.14.26,0,.43,0,.43,0,.47-.27.62-.27.62-.54.32-.41.75-.41.75v1.52l-.37.56v2.21l-.1.1v.69h-.12l-.33.46v.86l.17.26v1.96l-.28.39v2.09h-.37v.71l.08.38h-.5l-2.85-3.83v-1.7h-.17v1.27h-3.78v-1.27l.17-.26v-.86l-.34-.46h-.13v-.69l-.1-.1v-2.21l-.37-.56v-1.52s.12-.42-.41-.75c0,0-.27-.15-.27-.62,0,0,.14-.17,0-.43-.14-.26-.21-.61-.21-1.23,0,0,0-.87-.06-.87s-.06.87-.06.87c0,.62-.07.97-.21,1.23-.14.26,0,.43,0,.43,0,.47-.27.62-.27.62-.53.32-.41.75-.41.75v1.52l-.37.56v2.21l-.1.1v.69h-.12l-.34.46v.86l.17.26v1.27h-7.79v-10.08h.1v-.78h-.1v-3.43l-.22-1.17h-.16v-4.87l-.15-.37v-.24h-.24v-1.36l-.38-.97v-2.03l-.22-1.01h-.2l-.17.5h-.27v-2.21h.07v-.29h-.07v-1.09l-.19-.4h-.24v-.53l-.15-.36v-1.62s-.08-.34-.38-.44c0,0-.02-.23-.15-.35,0,0,.09-.91-.3-1.43v-1.42l-.1-2.24s.01-.11-.07-.11-.07.11-.07.11l-.11,2.24v1.42c-.4.52-.31,1.43-.31,1.43-.13.13-.15.35-.15.35-.3.1-.38.44-.38.44v1.62l-.15.36v.53h-.24l-.19.4v1.09h-.07v.29h.07v2.21h-.27l-.17-.5h-.2l-.22,1.01v2.03l-.38.97v1.36h-.24v.24l-.16.37v4.87h-.16l-.22,1.17v3.43h-.1v.78h.1v10.08h-7.79v-1.27l.17-.26v-.86l-.34-.46h-.12v-.69l-.1-.1v-2.21l-.37-.56v-1.52s.12-.42-.41-.75c0,0-.27-.15-.27-.62,0,0,.14-.17,0-.43-.14-.26-.21-.61-.21-1.23,0,0,0-.87-.06-.87s-.06.87-.06.87c0,.62-.07.97-.21,1.23-.14.26,0,.43,0,.43,0,.47-.27.62-.27.62-.53.32-.41.75-.41.75v1.52l-.37.56v2.21l-.1.1v.69h-.13l-.34.46v.86l.17.26v1.27h-3.78v-1.27h-.17v1.7l-2.85,3.83h-.5l.08-.38v-.71h-.37v-2.09l-.28-.39v-1.96l.17-.26v-.86l-.34-.46h-.12v-.69l-.1-.1v-2.21l-.37-.56v-1.52s.13-.42-.41-.75c0,0-.27-.15-.27-.62,0,0,.14-.17,0-.43-.14-.26-.2-.61-.2-1.23,0,0,0-.87-.06-.87s-.06.87-.06.87c0,.62-.06.97-.2,1.23-.14.26,0,.43,0,.43,0,.47-.27.62-.27.62-.54.32-.41.75-.41.75v1.52l-.37.56v2.21l-.1.1v.69h-.12l-.34.46v.86l.17.26v1.96l-.28.39v2.09h-.37v.71l.12.58h.44v1.47h-2.59l-1.01-31.34,3.61-1.85s.11,0,.05-.27c-.06-.27-.27-1.32-.27-1.32,0,0-.03-.27-.62-.27h-.93l-.09-1.78s.78-.12.78-.51v-6.56s-.11-.81-2.39-.81v-2.59h-.49v.2h-.49v-.79c.5,0,.9-.76.9-1.69s-.4-1.69-.9-1.69v-12.65h.19v-2.72h-.19v-.7s.02-.23-.33-.29v-.72h.04v-6.5s0-.31-.19-.31-.19.28-.19.31v6.5h.04v.72c-.34.05-.33.29-.33.29v.7h-.19v2.72h.19v12.65c-.5,0-.9.75-.9,1.69s.4,1.69.9,1.69v.79h-.49v-.2h-.49v2.59c-2.28,0-2.39.81-2.39.81v6.56c0,.39.78.51.78.51l-.09,1.78h-.93c-.59,0-.62.27-.62.27,0,0-.21,1.06-.27,1.32-.06.27.05.27.05.27l3.61,1.85-1.01,31.34h-8.07l-.8-2.24h-.1v-.9h.11v-.82h-1.09v-1.95c.02.1.04.2.06.22.02.02.05.03.1.03.15,0,.34-.1.44-.39.07-.22-.04-.41-.17-.63-.12-.2-.25-.43-.25-.72,0-.47-.14-1.01-.19-1.21v-.24s.04-.04.04-.07-.02-.06-.04-.07v-.02s-.02-.04-.04-.04-.04.02-.04.04v.02s-.04.04-.04.07.02.06.04.07l-.02,4.89h-1.09v.82h.11v.9h-.11l-1.68,4.72v.6h-.37v.51h-.48v.2l.43.35v.15h.06v2.83l-.16.24v4.59h-.34v.23l.4.32v5h-.11v.17h-4.09v-46.62h-4.75v-3.55h-5v-7.73c0-.08-.07-.15-.15-.15s-.15.07-.15.15v7.73h-2.06v3.55h-4.75v38.05h-5.34v-24.98s-.37-1.43-2.28-2.46c-1.18-1.68-3.24-2.21-4.85-2.21-1.1,0-2.07.33-2.07.33v-2.19c-4.38.66-5.06,3.34-5.06,3.34v36.75h-.09v30.61h378.61v-30.61h-1.85Z"/><path class="cls-6" d="M143.98,279.02h-9.02l-5.17,11.42h-4.83l14.69-31.55,14.17,31.55h-4.9l-4.94-11.42ZM143.98,279.02l-4.4-10.09-4.61,10.09h9.02Z"/><path class="cls-6" d="M161.4,273.07v10.75c0,3.1,1.22,4.65,3.67,4.65s3.67-1.55,3.67-4.65v-10.75h4.33v10.84c0,1.5-.19,2.79-.56,3.88-.36.97-.98,1.85-1.87,2.63-1.46,1.27-3.32,1.9-5.58,1.9s-4.1-.63-5.56-1.9c-.9-.78-1.53-1.66-1.9-2.63-.36-.87-.54-2.17-.54-3.88v-10.84h4.33Z"/><path class="cls-6" d="M189.45,276.27l-3.58,1.9c-.56-1.15-1.26-1.73-2.1-1.73-.4,0-.74.13-1.02.39-.28.26-.42.6-.42,1.01,0,.72.83,1.43,2.5,2.13,2.29.99,3.84,1.9,4.63,2.73.79.83,1.19,1.96,1.19,3.37,0,1.81-.67,3.32-2,4.54-1.29,1.15-2.86,1.73-4.69,1.73-3.14,0-5.36-1.53-6.67-4.6l3.69-1.71c.51.9.9,1.47,1.17,1.71.52.49,1.15.73,1.88.73,1.46,0,2.19-.67,2.19-2,0-.77-.56-1.49-1.69-2.15-.44-.22-.87-.43-1.31-.63-.44-.21-.88-.42-1.33-.63-1.26-.62-2.14-1.23-2.65-1.85-.65-.78-.98-1.79-.98-3.02,0-1.63.56-2.97,1.67-4.04,1.14-1.06,2.53-1.6,4.15-1.6,2.4,0,4.18,1.24,5.35,3.71Z"/><path class="cls-6" d="M199.63,277.11v14.69h-4.33v-14.69h-1.85v-4.04h1.85v-6.86h4.33v6.86h3.37v4.04h-3.37Z"/><path class="cls-6" d="M206.56,273.07h4.33v1.67c.79-.83,1.5-1.4,2.12-1.71.63-.32,1.37-.48,2.23-.48,1.14,0,2.33.37,3.58,1.12l-1.98,3.96c-.82-.59-1.62-.88-2.4-.88-2.36,0-3.54,1.78-3.54,5.34v9.71h-4.33v-18.73Z"/><path class="cls-6" d="M221.41,265.29c0-.76.28-1.41.83-1.96.55-.55,1.21-.83,1.98-.83s1.45.28,2,.83c.55.54.83,1.2.83,1.98s-.28,1.45-.83,2c-.54.55-1.2.83-1.98.83s-1.45-.28-2-.83-.83-1.22-.83-2.02ZM226.39,273.07v18.73h-4.33v-18.73h4.33Z"/><path class="cls-6" d="M245.95,273.07h4.35v18.73h-4.35v-1.96c-1.78,1.67-3.7,2.5-5.75,2.5-2.59,0-4.73-.94-6.42-2.81-1.68-1.91-2.52-4.29-2.52-7.15s.84-5.15,2.52-7.02c1.68-1.87,3.78-2.81,6.31-2.81,2.18,0,4.13.9,5.86,2.69v-2.17ZM235.68,282.38c0,1.79.48,3.26,1.44,4.38.99,1.14,2.23,1.71,3.73,1.71,1.6,0,2.9-.55,3.88-1.65.99-1.14,1.48-2.59,1.48-4.35s-.49-3.2-1.48-4.35c-.99-1.12-2.27-1.67-3.85-1.67-1.49,0-2.73.56-3.73,1.69-.99,1.14-1.48,2.55-1.48,4.23Z"/><path class="cls-6" d="M139.63,283.37c-2.18,0-4.27-.4-6.2-1.12l-1.64,3.62c2.43.94,5.08,1.47,7.84,1.47,2.6,0,5.09-.46,7.39-1.3l-1.58-3.65c-1.82.63-3.78.98-5.82.98Z"/><polygon class="cls-9" points="875.76 2.28 808.16 2.28 741.2 84.5 741.2 2.28 688.11 2.28 688.11 221.27 741.2 221.27 741.2 169.65 761.28 144.63 819.73 221.27 886.06 221.27 795.65 101.74 875.76 2.28"/><path class="cls-9" d="M1272.2,16.79c-17.14-9.67-35.95-14.51-56.35-14.51h-93.25v218.98h93.25c20.61,0,39.53-4.73,56.77-14.19,17.24-9.46,30.8-22.5,40.79-38.9,9.99-16.51,15.03-34.9,15.03-55.4s-5.05-39.11-15.14-56.03c-10.2-16.93-23.86-30.28-41.11-39.95ZM1267.26,141.79c-5.36,8.94-12.51,16.08-21.55,21.24-9.04,5.26-19.03,7.78-29.86,7.78h-40.05V52.64h40.05c10.83,0,20.82,2.63,29.86,7.99,9.04,5.36,16.29,12.51,21.55,21.55,5.36,9.04,7.99,19.03,7.99,29.86s-2.73,20.82-7.99,29.75Z"/><path class="cls-9" d="M1046.49,138.11c-4.63,9.46-11.56,17.14-20.82,22.71-9.15,5.68-19.24,8.52-30.17,8.52s-20.18-2.63-28.91-7.78c-8.83-5.15-15.77-12.09-21.03-20.92-5.26-8.83-7.88-18.4-7.88-28.91s2.63-20.18,7.88-28.91c5.26-8.83,12.3-15.77,21.03-21.03,8.83-5.26,18.4-7.88,28.91-7.88s20.61,2.84,29.54,8.31c9.04,5.57,15.98,12.83,21.03,21.66l45.52-24.28c-9.25-17.35-22.6-31.33-39.74-41.74-17.14-10.3-35.95-15.56-56.35-15.56s-38.16,4.94-54.88,14.72c-16.82,9.78-30.07,23.13-39.84,39.84-9.78,16.82-14.72,35.11-14.72,54.88s4.94,38.16,14.72,54.88c9.78,16.82,23.13,30.07,39.84,39.84,16.72,9.78,35.11,14.72,54.88,14.72s39.32-5.26,56.66-15.87c17.35-10.62,30.7-24.71,40.05-42.26l-45.73-24.92Z"/><path class="cls-9" d="M639.22,135.69l-19.45-84.31c-1.05-4.42-3.99-8.09-8.09-10.09L533.04,3.76c-4.1-2-8.94-2-13.04,0l-78.53,37.53c-4.1,2-7.04,5.68-8.09,10.09l-19.45,84.31c-.53,2.1-.53,4.31,0,6.52.11.63.32,1.26.53,1.89.42,1.05.84,2.1,1.47,3.05.32.42.53.84.84,1.16l27.96,34.69c.11-.42.11-.95.21-1.37.53-3.57-.63-6.73-1.79-9.99-2-5.47-4.73-10.72-5.57-16.61-.84-6.73-.63-13.46-.53-20.18.11-3.78-.95-7.15-2.1-10.62-1.47-4.63-3.57-9.04-4.21-13.88-.32-2.42-.42-4.84.32-7.25.53-1.47,1.37-2.73,2.94-2.73s2.63,1.16,3.05,2.63c.84,2.94,1.47,5.99,2.1,9.04.95,4.31,2.31,8.52,4.1,12.62,1.16,2.63,2.1,2.73,3.89.42.84-1.16,1.26-2.52,1.26-3.99.42-8.2.84-16.29,1.26-24.49.21-2.63.74-5.26,1.68-7.78.63-1.89,2-3.47,4.21-3.15s2.31,2.42,2.21,4.21c-.63,8.2-.84,16.29-.53,24.49,0,1.79-.11,3.47,1.26,5.78.11-10.93,3.26-20.61,4.52-30.7.11-1.37.53-2.63,1.05-3.78.95-1.68,2.63-2.52,4.42-2.21,2,.42,2,2.21,1.89,3.78-.63,5.57-1.58,11.14-2.1,16.72-.63,5.89-.84,11.88-1.37,18.29,1.68-1.26,1.68-2.73,2-3.99,1.47-5.26,3.05-10.62,3.57-16.08.21-1.47.53-2.84,1.16-4.1.74-2,2.31-3.26,4.31-2.94,2.1.32,1.79,2.52,1.89,4.1.21,7.15-1.37,14.09-2.31,21.03-1.26,8.31-1.37,16.72-.32,25.13.11.95.42,2,.74,2.84,1.26,3.47,2.84,3.99,5.99,2.1.84-.53,1.68-1.05,2.42-1.79,4.84-4.63,10.41-3.99,16.08-2,1.26.42,2.31,1.26,3.05,2.42,1.47,2.52.84,4.42-2.1,4.21-8.31-.74-13.04,4.1-17.56,9.78-2.84,3.57-7.04,4.94-11.04,6.31-3.47,1.16-4.52,3.05-4.42,6.62.21,12.93.21,25.86.21,38.79v.42l.63.84c.21.32.53.53.74.84.84.95,1.79,1.68,2.84,2.42,1.37.84,2.73,1.47,4.31,1.89,1.26.32,2.52.53,3.78.53h.84l33.75-.42c.11-6.41.21-12.83.32-19.13.11-9.57,3.05-18.71,4.1-28.07,1.47-12.62,1.47-25.34-.11-37.85-.42-3.99-2.1-6.73-6.2-8.31-4.31-1.58-6.52-5.99-9.57-9.25-9.15-9.67-15.87-21.34-25.76-30.49-1.05-.95-1.47-2.21-.84-3.47.84-1.79,2.73-2.94,4.73-2.73,4.1.21,7.36,2.1,10.09,5.05,3.15,3.26,6.1,6.52,9.78,9.25,3.89,2.94,5.15,2.52,7.15-1.79,3.68-7.88,3.89-15.98,1.68-24.28-2.21-8.62-5.36-17.14-4.94-26.28.21-5.36,1.47-8.52,4.21-8.41,4.63.21,4.1,4.42,4.63,7.25,1.68,9.15,3.36,18.4,6.83,27.12.42,1.16.53,3.36,2.42,2.84,1.47-.42.84-2.21.74-3.36-.74-10.83-1.89-21.66.11-32.48.32-1.89.53-3.78,1.79-5.36,1.16-1.37,2.52-2.31,4.31-1.79,1.68.53,2.42,1.89,2.42,3.57.11,4.1.32,8.2,0,12.3-.53,7.88.95,15.56,1.68,23.34.11,1.05,0,2.73,1.47,2.73,1.16,0,1.79-1.47,2-2.52,1.89-8.2,5.05-16.19,6.1-24.6.32-2.1.53-4.31,1.58-6.31.95-1.68,2.1-2.42,3.99-2.1,2.1.32,3.15,1.47,3.26,3.57.11,1.05.11,2-.11,3.05-1.89,10.3-2.84,20.82-5.99,30.91-.11.53-.21.95-.32,1.47-.21,1.16-.63,2.63.53,3.15,1.37.74,2.31-.74,3.05-1.68,4.21-5.05,8.2-10.2,10.93-16.19.42-1.05,1.05-2,1.89-2.84,1.16-1.26,2.63-2.1,4.52-1.37,2.1.95,1.37,2.73,1.16,4.31-.32,2.73-1.37,5.26-2.94,7.46-8.83,11.98-11.77,25.65-11.67,40.16,0,4.31-1.05,8.62-2.94,12.51-1.79,3.78-1.89,7.78-1.68,11.98.74,13.67,3.57,27.12,5.15,40.68,1.89,16.08,2.63,32.27,1.37,48.36h11.67c.53,0,1.05,0,1.58-.11.74-.11,1.47-.21,2.21-.42.53-.11,1.05-.32,1.58-.53.42-.11.74-.32,1.16-.53.53-.32,1.16-.53,1.68-.95,1.37-.84,2.63-1.89,3.57-3.15l.63-1.58c1.37-16.72-.32-33.33-1.16-49.94-.42-8.83-8.62-19.24-19.66-19.45-2,0-4.73.63-4.84-2.73,0-2.73,1.79-4.42,4.52-4.84,3.47-.53,6.94-.21,10.2,1.05,6.73,2.42,10.62-1.05,8.73-8.2-2-7.78-3.26-15.66-3.89-23.65-.21-2.1-.53-4.21.11-6.31.63-2,1.58-3.78,3.99-3.68,2.63.11,2.42,2.42,2.73,4.21,1.16,6.73,2.63,13.25,5.99,19.97,1.58-2.63,1.68-5.05,1.89-7.15.32-5.05,2-9.88,2.52-14.93.11-.95.42-1.79.95-2.63.84-1.47,2-2.63,3.89-2.21,2.1.42,2.73,2.1,2.63,3.99-.32,4.73-.84,9.57-1.26,14.3-.21,2.84-.42,5.57.11,8.62,1.89-5.36,3.78-10.72,5.57-16.08.95-2.73,1.16-6.62,5.26-5.47,3.68,1.16,1.68,4.63,1.16,6.94-1.26,6.41-2.94,12.72-4.42,19.13-.32,1.47-1.05,3.36.84,4.31,1.68.84,2.63-.95,3.57-2,3.78-4.21,7.36-8.52,11.14-12.62,1.05-1.16,2.21-3.26,4.31-1.89,1.79,1.26,1.37,3.36.53,5.15-1.47,3.26-3.47,6.31-5.78,9.04-3.57,4.1-6.2,8.62-7.04,14.09-.53,3.57-1.47,7.04-2.94,10.3-4.31,9.04-4.52,18.4-3.05,28.07.11.63.21,1.26.32,1.89l26.81-33.33c1.05-1.26,1.79-2.73,2.31-4.21.21-.63.42-1.26.53-1.89.63-2.21.63-4.42.21-6.52Z"/><path class="cls-1" d="M434.33,277.93h14.19v13.35c-3.15,3.36-8.2,5.36-13.04,5.36-9.36,0-17.35-7.67-17.35-16.72s7.99-16.72,17.35-16.72c4.84,0,9.78,2,13.04,5.36l-5.05,4.52c-1.89-2.21-5.05-3.57-7.99-3.57-5.57,0-10.2,4.84-10.2,10.41s4.63,10.41,10.2,10.41c2.21,0,4.42-.74,6.2-2.1v-4.94h-7.46v-5.36h.11Z"/><path class="cls-1" d="M474.07,285.08l7.78,11.04h-7.88l-7.36-10.51h-4.21v10.51h-6.94v-32.27h14.51c7.04,0,12.19,4.52,12.19,10.93,0,4.94-3.26,8.83-8.09,10.3ZM462.4,279.3h6.83c3.47,0,5.78-1.79,5.78-4.52s-2.31-4.52-5.78-4.52h-6.83v9.04Z"/><path class="cls-1" d="M486.58,279.93c0-9.04,7.88-16.72,17.24-16.72s17.14,7.57,17.14,16.72-7.78,16.72-17.14,16.72-17.24-7.67-17.24-16.72ZM513.8,279.93c0-5.57-4.63-10.41-9.99-10.41s-10.09,4.84-10.09,10.41,4.63,10.41,10.09,10.41,9.99-4.84,9.99-10.41Z"/><path class="cls-1" d="M524.42,263.74h7.57l5.99,21.66,7.15-21.66h7.57l7.15,21.66,5.89-21.66h7.57l-9.78,32.27h-7.04l-7.57-22.18-7.67,22.18h-7.04l-9.78-32.27Z"/><path class="cls-1" d="M578.77,263.74h6.94v32.27h-6.94v-32.27Z"/><path class="cls-1" d="M593.81,263.74h6.94l15.56,20.92v-20.92h6.94v32.27h-6.94l-15.56-20.92v20.92h-6.94v-32.27Z"/><path class="cls-1" d="M645.64,277.93h14.19v13.35c-3.15,3.36-8.2,5.36-13.04,5.36-9.36,0-17.35-7.67-17.35-16.72s7.99-16.72,17.35-16.72c4.84,0,9.78,2,13.04,5.36l-5.05,4.52c-1.89-2.21-5.05-3.57-7.99-3.57-5.57,0-10.2,4.84-10.2,10.41s4.63,10.41,10.2,10.41c2.21,0,4.42-.74,6.2-2.1v-4.94h-7.46v-5.36h.11Z"/><path class="cls-1" d="M677.7,279.93c0-9.04,7.88-16.72,17.24-16.72,4.84,0,9.36,2.1,12.51,5.36l-5.05,4.52c-1.79-2.21-4.52-3.57-7.46-3.57-5.47,0-10.09,4.84-10.09,10.41s4.63,10.41,10.09,10.41c2.94,0,5.68-1.47,7.46-3.57l5.05,4.52c-3.15,3.26-7.57,5.36-12.51,5.36-9.36,0-17.24-7.67-17.24-16.72Z"/><path class="cls-1" d="M735.94,289.81v6.2h-23.02v-32.27h6.94v26.07h16.08Z"/><path class="cls-1" d="M739.62,279.93c0-9.04,7.88-16.72,17.24-16.72s17.14,7.57,17.14,16.72-7.78,16.72-17.14,16.72-17.24-7.67-17.24-16.72ZM766.85,279.93c0-5.57-4.63-10.41-9.99-10.41s-10.09,4.84-10.09,10.41,4.63,10.41,10.09,10.41,9.99-4.84,9.99-10.41Z"/><path class="cls-1" d="M779.57,282.14v-18.29h6.94v18.08c0,4.94,3.15,8.52,7.67,8.52s7.67-3.57,7.67-8.52v-18.08h6.94v18.29c0,8.52-6.1,14.51-14.61,14.51-8.62,0-14.61-5.99-14.61-14.51Z"/><path class="cls-1" d="M816.26,263.74h11.56c10.83,0,18.61,6.62,18.61,16.08s-7.67,16.19-18.61,16.19h-11.56v-32.27ZM828.77,289.81c6.2,0,10.51-4.1,10.51-9.88s-4.42-9.78-10.51-9.78h-5.57v19.66h5.57Z"/><path class="cls-1" d="M865.35,263.74h6.94l15.56,20.92v-20.92h6.94v32.27h-6.94l-15.56-20.92v20.92h-6.94v-32.27Z"/><path class="cls-1" d="M924.12,290.55h-13.98l-2.21,5.57h-7.78l13.14-32.27h7.78l13.14,32.27h-7.78l-2.31-5.57ZM921.91,285.08l-4.84-11.77-4.84,11.77h9.67Z"/><path class="cls-1" d="M946.93,270.05h-10.09v-6.2h27.12v6.2h-10.09v26.07h-6.94v-26.07h0Z"/><path class="cls-1" d="M969.43,263.74h6.94v32.27h-6.94v-32.27Z"/><path class="cls-1" d="M1015.79,263.74l-13.14,32.27h-7.78l-13.14-32.27h7.78l9.25,22.71,9.25-22.71h7.78Z"/><path class="cls-1" d="M1027.99,270.05v6.41h16.29v6.2h-16.29v7.15h17.87v6.2h-24.92v-32.27h24.92v6.2h-17.87v.11Z"/><path class="cls-1" d="M1072.88,270.05h-10.09v-6.2h27.12v6.2h-10.09v26.07h-6.94v-26.07h0Z"/><path class="cls-1" d="M1093.48,279.93c0-9.04,7.88-16.72,17.24-16.72s17.14,7.57,17.14,16.72-7.78,16.72-17.14,16.72-17.24-7.67-17.24-16.72ZM1120.71,279.93c0-5.57-4.63-10.41-9.99-10.41s-10.09,4.84-10.09,10.41,4.63,10.41,10.09,10.41,9.99-4.84,9.99-10.41Z"/><path class="cls-1" d="M1148.36,277.93h14.19v13.35c-3.15,3.36-8.2,5.36-13.04,5.36-9.36,0-17.35-7.67-17.35-16.72s7.99-16.72,17.35-16.72c4.84,0,9.78,2,13.04,5.36l-5.05,4.52c-1.89-2.21-5.05-3.57-7.99-3.57-5.57,0-10.2,4.84-10.2,10.41s4.63,10.41,10.2,10.41c2.21,0,4.42-.74,6.2-2.1v-4.94h-7.46v-5.36h.11Z"/><path class="cls-1" d="M1176.43,270.05v6.41h16.29v6.2h-16.29v7.15h17.87v6.2h-24.81v-32.27h24.92v6.2h-17.98v.11Z"/><path class="cls-1" d="M1208.49,270.05h-10.09v-6.2h27.12v6.2h-10.09v26.07h-6.94v-26.07h0Z"/><path class="cls-1" d="M1259.58,263.74v32.27h-6.94v-13.35h-14.72v13.35h-6.94v-32.27h6.94v12.72h14.72v-12.72h6.94Z"/><path class="cls-1" d="M1274.83,270.05v6.41h16.29v6.2h-16.29v7.15h17.87v6.2h-24.92v-32.27h24.92v6.2h-17.87v.11Z"/><path class="cls-1" d="M1318.04,285.08l7.78,11.04h-7.88l-7.36-10.51h-4.21v10.51h-6.94v-32.27h14.51c7.04,0,12.19,4.52,12.19,10.93,0,4.94-3.26,8.83-8.09,10.3ZM1306.37,279.3h6.83c3.47,0,5.78-1.79,5.78-4.52s-2.31-4.52-5.78-4.52h-6.83v9.04Z"/></g></svg>