<svg width="318" height="150" viewBox="0 0 318 150" fill="none" xmlns="http://www.w3.org/2000/svg">
<path d="M0.894531 134.062L38.3945 150V103.875C38.3945 98.0625 41.957 93.375 47.7695 93.375C53.582 93.375 57.1445 98.0625 57.1445 103.875V150L94.6445 134.062V100.5C94.6445 75.5625 75.332 56.25 50.3945 56.25C46.457 56.25 42.5195 56.9 38.3945 58.125V15.9375L0.894531 0V134.062Z" fill="#CFFF5B"/>
<path d="M130.794 26.3984H139.731V48.4666L141.564 41.2251C143.398 39.2773 145.827 38.246 149.287 38.246C156.827 38.246 160.768 43.2876 160.768 52.2936V71.0848H151.831V54.2415C151.831 48.7187 150.25 46.5188 146.171 46.5188C142.046 46.5188 139.731 49.4978 139.731 54.8373V71.0619H130.794V26.3984Z" fill="white"/>
<path d="M165.855 55.2727C165.855 45.4876 172.478 38.2461 181.782 38.2461C186.045 38.2461 189.322 39.8273 191.636 42.2564V39.4607H200.573V56.7165L205.386 71.0619H195.967L192.369 59.6956L191.819 67.8995C189.619 70.3973 186.48 71.9786 181.851 71.9786C172.547 72.0015 165.855 64.8746 165.855 55.2727ZM191.934 55.2727C191.934 49.6125 187.855 46.3355 183.615 46.3355C179.055 46.3355 175.159 49.75 175.159 55.2727C175.159 60.6122 179.055 63.9121 183.615 63.9121C187.855 63.9121 191.934 60.7497 191.934 55.2727Z" fill="white"/>
<path d="M209.396 59.4667V39.4609H218.334V58.3667C218.334 62.377 219.984 64.3249 223.375 64.3249C227.684 64.3249 229.815 60.6125 229.815 55.4564V39.4609H238.752V60.2L242.35 71.0851H232.931L229.838 61.0479V67.854C228.142 70.1685 225.713 71.9789 221.152 71.9789C213.888 72.0018 209.396 67.2581 209.396 59.4667Z" fill="white"/>
<path d="M261.507 25.1841C263.524 25.1841 265.448 25.2987 267.351 25.8028V33.2735C266.021 32.9756 264.624 32.8381 263.271 32.8381C261.026 32.8381 259.742 34.1672 259.742 36.7796V39.4608H268.382V46.9314H259.742V71.085H250.805V46.9543H245.03V39.4608H250.805V36.4817C250.805 29.9277 255.068 25.1841 261.507 25.1841Z" fill="white"/>
<path d="M271.59 55.4103C271.59 45.4418 278.327 38.269 287.814 38.269C296.866 38.269 302.824 44.9605 302.824 54.6311C302.824 55.7311 302.756 56.6477 302.572 57.9769H281.054C281.787 63.0184 284.583 64.7142 288.479 64.7142C292.237 64.7142 294.552 63.2017 296.133 59.7872L302.389 65.5621C299.158 69.8703 294.185 72.0015 288.158 72.0015C277.8 72.0015 271.59 65.0579 271.59 55.4103ZM293.36 51.8812V51.7666C293.36 48.1688 291.412 45.5563 287.585 45.5563C284.308 45.5563 281.879 47.4355 281.146 51.8812H293.36Z" fill="white"/>
<path d="M317.789 68.7245V71.0848H307.568V60.8643H317.789V68.7245Z" fill="white"/>
<path d="M128.96 125.923L136.431 121.18C137.714 125.007 140.808 127.138 145.185 127.138C150.479 127.138 153.756 123.975 153.756 118.98V109.309L151.51 117.765C150.043 118.728 147.247 119.644 144.452 119.644C135.148 119.644 128.938 112.907 128.938 103.832C128.938 94.597 135.148 87.7222 144.452 87.7222C148.393 87.7222 151.51 89.1201 153.756 91.3658V88.9596H162.693V119.598C162.693 128.788 155.887 134.563 145.07 134.563C137.05 134.563 131.321 131.469 128.96 125.923ZM154.076 103.832C154.076 98.5386 150.479 95.8116 146.239 95.8116C141.679 95.8116 138.264 98.8594 138.264 103.832C138.264 108.645 141.679 111.555 146.239 111.555C150.479 111.555 154.076 108.576 154.076 103.832Z" fill="white"/>
<path d="M169.729 88.9367H178.666V99.1572L180.499 90.7012C181.416 89.67 183.547 88.02 186.343 88.02C187.741 88.02 188.657 88.1346 189.872 88.6387V97.3239C188.222 96.774 187.076 96.5448 185.311 96.5448C181.187 96.5448 178.689 100.005 178.689 105.367V120.561H169.751V88.9367H169.729Z" fill="white"/>
<path d="M192.529 104.634C192.529 94.7803 199.885 87.7222 209.968 87.7222C220.052 87.7222 227.408 94.7803 227.408 104.634C227.408 114.419 220.052 121.478 209.968 121.478C199.885 121.478 192.529 114.419 192.529 104.634ZM218.127 104.634C218.127 99.226 214.597 95.949 209.968 95.949C205.339 95.949 201.81 99.226 201.81 104.634C201.81 109.974 205.339 113.274 209.968 113.274C214.597 113.274 218.127 109.974 218.127 104.634Z" fill="white"/>
<path d="M232.243 108.942V88.9365H241.18V107.842C241.18 111.853 242.83 113.8 246.222 113.8C250.53 113.8 252.661 110.088 252.661 104.932V88.9365H261.599V109.676L265.196 120.561H255.778L252.684 110.523V117.33C250.989 119.644 248.559 121.454 243.999 121.454C236.735 121.477 232.243 116.734 232.243 108.942Z" fill="white"/>
<path d="M269.871 88.9367H278.808V91.7325C281.123 89.3034 284.4 87.7222 288.662 87.7222C297.966 87.7222 304.589 94.9637 304.589 104.749C304.589 114.351 297.897 121.478 288.594 121.478C285.5 121.478 283.185 120.859 281.123 119.53L278.808 111.142V133.646H269.871V88.9367ZM295.285 104.749C295.285 99.226 291.389 95.8116 286.829 95.8116C282.567 95.8116 278.51 99.0886 278.51 104.749C278.51 110.226 282.59 113.388 286.829 113.388C291.389 113.388 295.285 110.111 295.285 104.749Z" fill="white"/>
</svg>
