<svg id="Ebene_1" data-name="Ebene 1" xmlns="http://www.w3.org/2000/svg" viewBox="0 0 507.25 138.09"><defs><style>.cls-1{fill:#e52337}</style></defs><path class="cls-1" d="M126.71 127.3l-7.35-25.45h-11.2l12.01 36.24h11.81l11.86-36.24h-9.73l-7.4 25.45zM340.39 101.85h-9.08v20.43l-11.6-20.43h-11.72v36.24h9.13v-22.76l13.23 22.76h10.04v-36.24zM250.66 101.85v36.24h9.12v-22.76l13.23 22.76h10.04v-36.24h-9.07v20.43l-11.61-20.43h-11.71zM374.1 101.85l-11.61 36.24h9.68l1.93-6.74h12l1.93 6.74h11l-11.51-36.24zm2 22.35l4-13.94 4 13.94zM212.03 123.49h11.71v-7.4h-11.71v-6.23h14.7v-8.01h-25.04v36.24h25.85v-8.01h-15.51v-6.59zM166.1 101.85h10.49v36.25H166.1zM198.52 51.15h6.79V87.4h-6.79zM11 51.15H0V87.4h10.9c12.72 0 18.86-7.5 18.86-18.05v-.45c0-10.55-6.14-17.75-18.76-17.75zM22.71 69.4c0 8-3.9 12.68-12 12.68h-4v-25.6h3.91c8.51 0 12.06 4.71 12.06 12.52zM237.96 59.62l16.32 27.78h7V51.15h-6.13v26.21l-15.27-26.21h-8.05V87.4h6.13V59.62zM60.88 71.48h12.78v-5.07H60.88v-9.93H76.8v-5.33H54.14V87.4h23.52v-5.32H60.88v-10.6zM127.35 76.7c0-7.25-4.42-9.68-12.93-10.85-6.29-.91-7.5-2.38-7.5-5.32s2.12-4.76 6.23-4.76 6.34 1.62 7 5.42h6.18c-.71-6.94-5.37-10.5-13.18-10.5-7.55 0-12.62 4.47-12.62 10.4 0 6.79 4.11 9.43 12.77 10.6 5.88 1 7.55 2.22 7.55 5.57S118 82.84 114 82.84c-6.13 0-7.6-3-8.06-6.7h-6.48C100 83 104.13 87.9 114 87.9c8 0 13.35-4.9 13.35-11.2zM174.95 51.15h-26.97v5.33h10.09V87.4h6.79V56.48h10.09v-5.33zM385.28 51.15h6.79V87.4h-6.79zM435.11 50.64c-10.74 0-18.35 7.86-18.35 18.46v.4c0 10.45 7.25 18.4 18.35 18.4s18.25-8 18.25-18.55V69c0-10.7-7.45-18.36-18.25-18.36zm11.26 18.76c0 7.86-4.31 13.08-11.16 13.08-6.59 0-11.41-5.12-11.41-13v-.4c0-7.81 4.21-13 11.31-13s11.26 5.52 11.26 13zM317.65 87.4l-12-36.25h-8.82L284.75 87.4h6.34l2.84-9h13.84l2.89 9zM295.5 73.51l5.37-16.83 5.32 16.83zM361.71 51.15h-26.97v5.33h10.08V87.4h6.8V56.48h10.09v-5.33zM501.12 51.15v26.21l-15.26-26.21h-8.07V87.4h6.14V59.62l16.32 27.78h7V51.15h-6.13zM226.04 34.37h-18.9v-15.1h14.6v-2.34h-14.6V2.79h17.99V.46H204.3V36.7h21.74v-2.33zM398.76 21.39h11.16v.21c-.11 8-4.36 13.18-12.83 13.18-9.33 0-14.5-6.39-14.5-16v-.41c0-9.43 5.73-16.07 14.45-16.07 5.78 0 10.34 2.54 11.66 8.52h2.84C410.17 3.24 403.94 0 397 0c-9.94 0-17.29 7.81-17.29 18.4v.41c0 10.64 6.49 18.3 17.39 18.3 9.33 0 15.56-5.58 15.56-16V19h-13.9zM179.41 34.37H160.5v-15.1h14.6v-2.34h-14.6V2.79h18V.46h-20.84V36.7h21.75v-2.33zM258.8 36.7h2.78V2.79h11.26V.46h-25.3v2.33h11.26V36.7zM297.22.46h2.84v36.25h-2.84zM330.32 3.6l20.74 33.1h3.35V.46h-2.69V32.8L331.44.46h-3.85V36.7h2.73V3.6zM113.76 36.7L127.4 4v32.7h2.78V.46h-3.95L113.4 31.59 100.63.46h-4.06V36.7h2.64V4l13.64 32.7h.91z"/></svg>